<svg xmlns="http://www.w3.org/2000/svg" xmlns:xlink="http://www.w3.org/1999/xlink" width="308" height="305" viewBox="0 0 308 305"><defs><clipPath id="clip-hOUSEdfs_TF"><rect width="308" height="305"></rect></clipPath></defs><g id="hOUSE_TasewF" data-name="hOUSE TF" clip-path="url(#clip-hOUSEdfs_TF)"><path id="Path_1sfggdf" data-name="Path 1" d="M1105.978,598.261a2.988,2.988,0,0,1-1.839-.632l-88.359-68.685-87.721,68.109a3,3,0,0,1-4.042-.333L913.34,585.18a3,3,0,0,1,.39-4.428l100.238-76a3,3,0,0,1,3.635.008l99.721,76.291a3,3,0,0,1,.514,4.264l-9.522,11.83A3,3,0,0,1,1105.978,598.261Zm-90.2-76.116a3,3,0,0,1,1.841.631l87.87,68.305,5.745-7.137-95.464-73.034-95.781,72.623,6.561,7.093,87.389-67.851A3,3,0,0,1,1015.781,522.146Z" transform="translate(-815 -381)"></path><path id="Path_ew2" data-name="Path 2" d="M1105.978,598.261a2.988,2.988,0,0,1-1.839-.632l-88.359-68.685-87.721,68.109a3,3,0,0,1-4.042-.333L913.34,585.18a3,3,0,0,1,.39-4.428l100.238-76a3,3,0,0,1,3.635.008l99.721,76.291a3,3,0,0,1,.514,4.264l-9.522,11.83A3,3,0,0,1,1105.978,598.261Zm-90.2-76.116a3,3,0,0,1,1.841.631l87.87,68.305,5.745-7.137-95.464-73.034-95.781,72.623,6.561,7.093,87.389-67.851A3,3,0,0,1,1015.781,522.146Z" transform="translate(-910 -492)"></path><path id="Path_sdfg3" data-name="Path 3" d="M1087.013,677.667h-6V577.36h6Z" transform="translate(-815 -381)"></path><path id="Path_fa4" data-name="Path 4" d="M1084.013,603.744a3,3,0,0,1-3-3V577.36a3,3,0,0,1,6,0v23.384A3,3,0,0,1,1084.013,603.744Z" transform="translate(-909 -454.078)"></path><path id="Path_5ss" data-name="Path 5" d="M1084.013,598.475a3,3,0,0,1-3-3V577.36a3,3,0,0,1,6,0v18.115A3,3,0,0,1,1084.013,598.475Z" transform="translate(-909 -491.059)"></path><path id="Path_6ewewq" data-name="Path 6" d="M1084.013,728.382a3,3,0,0,1-3-3V577.36a3,3,0,0,1,6,0V725.382A3,3,0,0,1,1084.013,728.382Z" transform="translate(-1048.373 -488.037)"></path><g id="Group_1dfg" data-name="Group 1" transform="translate(-815 -381)"><path id="Path_7wr" data-name="Path 7" d="M1084.013,617.234a3,3,0,0,1-3-3V574.841a3,3,0,0,1,6,0v39.393A3,3,0,0,1,1084.013,617.234Z" transform="translate(-233.373 -167.109)"></path><path id="Path_8jfj" data-name="Path 8" d="M1084.013,595.852a3,3,0,0,1-3-3V578.285a3,3,0,0,1,6,0v14.567A3,3,0,0,1,1084.013,595.852Z" transform="translate(-201.373 -170.109)"></path></g><path id="Path_1gsf5" data-name="Path 15" d="M12,6a6,6,0,0,0,0,12H38A6,6,0,0,0,38,6H12m0-6H38a12,12,0,0,1,0,24H12A12,12,0,0,1,12,0Z" transform="translate(26 5)"></path><path id="Path_16dfgb" data-name="Path 16" d="M5,5V23H23V5H5M0,0H28V28H0Z" transform="translate(79 78)"></path><path id="Path_17sdv" data-name="Path 17" d="M5,5V23H24V5H5M0,0H29V28H0Z" transform="translate(102 78)"></path><path id="Path_184ds" data-name="Path 18" d="M5,5V23H23V5H5M0,0H28V28H0Z" transform="translate(79 101)"></path><path id="Path_1ds9" data-name="Path 19" d="M5,5V23H24V5H5M0,0H29V28H0Z" transform="translate(102 101)"></path><path id="Path_2sgf0" data-name="Path 20" d="M5,5V23H23V5H5M0,0H28V28H0Z" transform="translate(79 124)"></path><path id="Path_21dfger" data-name="Path 21" d="M5,5V23H24V5H5M0,0H29V28H0Z" transform="translate(102 124)"></path><path id="Path_fgdjbb9" data-name="Path 9" d="M990.013,680.667a3,3,0,0,1-3-3V600.12a3,3,0,0,1,3-3h49.868a3,3,0,0,1,3,3v45.167a3,3,0,0,1-6,0V603.12H993.013v74.547A3,3,0,0,1,990.013,680.667Z" transform="translate(-815 -381)"></path><path id="Path_10w" data-name="Path 10" d="M1039.881,679.448a3,3,0,0,1-3-3V658.241a3,3,0,0,1,6,0v18.207A3,3,0,0,1,1039.881,679.448Z" transform="translate(-815 -381)"></path><path id="Path_116" data-name="Path 11" d="M1104.144,680.667H822.487a3,3,0,0,1-3-3V657.989a3,3,0,0,1,3-3h47.337a3,3,0,0,1,0,6H825.487v13.677h278.657a3,3,0,0,1,0,6Z" transform="translate(-815 -381)"></path><path id="Path_12dfg" data-name="Path 12" d="M947.448,680.148a3,3,0,0,1-3-3V661.241H888.626a3,3,0,0,1,0-6h58.822a3,3,0,0,1,3,3v18.907A3,3,0,0,1,947.448,680.148Z" transform="translate(-815 -381)"></path><path id="Path_2c2" data-name="Path 22" d="M0,0H5V14H0Z" transform="translate(179 249)"></path><path id="Path_123" data-name="Path 13" d="M939.912,658.414l-5.94-.849c.761-5.325-1.014-21.114-9.723-26.793-6.106-3.981-14.849-2.482-25.985,4.455l-3.172-5.093c13.29-8.279,24.2-9.756,32.435-4.388C939.286,633.414,940.736,652.648,939.912,658.414Z" transform="translate(-815 -381)"></path><path id="Path_1fsdy4" data-name="Path 14" d="M827.9,658.24h-6v-13.3a3,3,0,0,1,.444-1.57c2.6-4.231,6.415-6.218,9.781-7.971a24.154,24.154,0,0,0,5.138-3.22l1.542-5.859a3,3,0,0,1,.416-.917c4-5.922,13.581-9.15,22.773-7.677a22.727,22.727,0,0,1,17.9,13.781c3.31-1.156,8.663-2.39,13.326-.566,7.034,2.752,9.066,6.648,11.8,12.776a3,3,0,0,1,.26,1.222V656.49h-6V645.576c-2.254-5.017-3.521-7.2-8.247-9.051-3.884-1.52-9.648.658-11.541,1.625a3,3,0,0,1-4.257-1.849,16.928,16.928,0,0,0-14.189-12.655c-7.19-1.153-14.037,1.513-16.58,4.74l-1.607,6.108a3,3,0,0,1-.717,1.293,25.622,25.622,0,0,1-7.244,4.928c-2.7,1.4-5.257,2.738-7,5.127Z" transform="translate(-815 -381)"></path></g></svg> 
