<svg xmlns="http://www.w3.org/2000/svg" xmlns:xlink="http://www.w3.org/1999/xlink" width="91" height="108" viewBox="0 0 91 108"><defs><clipPath id="clip-Helmet_Seting"><rect width="91" height="108"></rect></clipPath></defs><g id="Helmet_Seting" data-name="Helmet Seting" clip-path="url(#clip-Helmet_Seting)"><path id="Patvvh_1" data-name="Path 1" d="M974.749,591.18a3,3,0,0,1-2.56-1.437l-4.031-6.7H961.15c-1.273,1.641-3.669,4.676-5.828,7.12A3,3,0,0,1,953,591.18c-6.277-.159-13.546-4.654-16.549-10.234a3,3,0,0,1,.271-3.261,64.96,64.96,0,0,0,4.032-5.9l-4.259-6.7c-1.927.045-5.113.085-7.746-.053a3,3,0,0,1-2.464-1.536c-2.282-4.1-2.935-10.395-1.868-15.817l-.886-.007a3,3,0,0,1-2.976-3V531.8a3,3,0,0,1,3.083-3c.008,0,2.772.084,4.964.1,1.353-33.969,26.5-37.558,26.759-37.591l.77,5.95c-.882.121-21.589,3.329-21.586,34.536a3.025,3.025,0,0,1-.913,2.16c-.884.859-1.079,1.049-7.078.918V541.7c.689,0,1.306,0,1.6,0a3.008,3.008,0,0,1,3.287,3.216,3.043,3.043,0,0,1-.6,1.892,20.379,20.379,0,0,0,.027,12.31c3.446.079,7.1-.066,7.129-.067a3,3,0,0,1,2.65,1.388l6.157,9.684a3,3,0,0,1,.094,3.06,70.835,70.835,0,0,1-4.14,6.457,15.822,15.822,0,0,0,9.064,5.417c2.708-3.177,5.448-6.794,5.464-6.815a3,3,0,0,1,2.391-1.188h10.18a3,3,0,0,1,2.576,1.462L976.4,585.1a13.6,13.6,0,0,0,10.08-5.286c-2.525-3.82-4.429-6.459-4.446-6.482a3,3,0,0,1-.064-3.42l6.528-9.792a3,3,0,0,1,2.488-1.336h7.426a17.352,17.352,0,0,0-.757-12.44,3,3,0,0,1,3.307-4.243c.3.013.763.014,1.274.008v-7.292c-5.74.022-5.8,0-6.265-.13a3,3,0,0,1-2.168-2.98c.863-26.605-14.214-32.979-20.737-34.485l1.327-5.851c6.035,1.393,25.138,8.14,25.442,37.48,2.241-.033,5.387-.047,5.389-.047a3,3,0,0,1,3.013,3v13.229a3,3,0,0,1-2.9,3l-.761.025c1.233,5.223.7,11.079-1.6,15.192a3.015,3.015,0,0,1-2.629,1.537H992.6l-4.495,6.742c1.069,1.532,2.749,3.983,4.63,6.89a3,3,0,0,1-.227,3.566c-3.435,4.089-7.618,9.071-17.719,9.2Z" transform="translate(-919 -484)"></path><path id="Pateh_2" data-name="Path 2" d="M976.619,518.394a3,3,0,0,1-2.956-2.51l-3.937-23.748H958.393l-3.144,23.653A3,3,0,1,1,949.3,515l3.49-26.257a3,3,0,0,1,2.974-2.6h16.5a3,3,0,0,1,2.96,2.509l4.353,26.257a3,3,0,0,1-2.963,3.491Z" transform="translate(-919 -484)"></path><path id="Pat3h_3" data-name="Path 3" d="M1000.875,547l-72.731-.3.024-6,72.731.3Z" transform="translate(-919.372 -483)"></path><path id="Path_44" data-name="Path 4" d="M12.5,5A7.5,7.5,0,1,0,20,12.5,7.509,7.509,0,0,0,12.5,5m0-5A12.5,12.5,0,1,1,0,12.5,12.5,12.5,0,0,1,12.5,0Z" transform="translate(33 58)"></path></g></svg> 
