<svg xmlns="http://www.w3.org/2000/svg" xmlns:xlink="http://www.w3.org/1999/xlink" width="173" height="173" viewBox="0 0 173 173"><defs><clipPath id="clip-Building"><rect width="173" height="173"></rect></clipPath></defs><g id="Building" clip-path="url(#clip-Building)"><path id="Path_28" data-name="Path 28" d="M6,6V64.7H66V6H6M0,0H72V70.7H0Z" transform="translate(9 100)"></path><path id="Path_29" data-name="Path 29" d="M6,6l-.01,81.467H44V6H6M0,0H50V93.467H-.011Z" transform="translate(116 77)"></path><path id="Pasdfth_11" data-name="Path 11" d="M912.732,628.652h-13.98a3,3,0,0,1,0-6h13.98a3,3,0,0,1,0,6Z" transform="translate(-812.095 -563.456)"></path><path id="Pasdfth_12" data-name="Path 12" d="M997.636,627.945a3,3,0,0,1-3-3V502.137H949.32v33.292a3,3,0,0,1-6,0V496.137h57.316V624.945A3,3,0,0,1,997.636,627.945Z" transform="translate(-897 -458)"></path><path id="Path_1df4" data-name="Path 14" d="M903.234,628.652a3.1,3.1,0,0,1-3.109-3,2.909,2.909,0,0,1,2.891-3h.219a3,3,0,0,1,0,6Z" transform="translate(-853.771 -537)"></path><path id="Patsdfh_15" data-name="Path 15" d="M912.732,628.652h-13.98a3,3,0,0,1,0-6h13.98a3,3,0,0,1,0,6Z" transform="translate(-812.095 -545.456)"></path><path id="Path_16" data-name="Path 16" d="M912.732,628.652h-13.98a3,3,0,0,1,0-6h13.98a3,3,0,0,1,0,6Z" transform="translate(-812.095 -527.456)"></path><path id="Path_17" data-name="Path 17" d="M912.732,628.652h-13.98a3,3,0,0,1,0-6h13.98a3,3,0,0,1,0,6Z" transform="translate(-812.095 -509.456)"></path><path id="Path_18" data-name="Path 18" d="M912.732,628.652h-13.98a3,3,0,0,1,0-6h13.98a3,3,0,0,1,0,6Z" transform="translate(-812.095 -491.456)"></path><path id="Path_19" data-name="Path 19" d="M912.732,628.652h-13.98a3,3,0,0,1,0-6h13.98a3,3,0,0,1,0,6Z" transform="translate(-812.095 -473.456)"></path><path id="Pddath_23" data-name="Path 23" d="M1039.879,539.4a3,3,0,0,1-3-3V494.406l-50.222-27.523v30.648a3,3,0,0,1-6,0V461.818a3,3,0,0,1,4.442-2.631L1041.321,490a3,3,0,0,1,1.558,2.631V536.4A3,3,0,0,1,1039.879,539.4Z" transform="translate(-897 -458)"></path><path id="Path_25" data-name="Path 25" d="M910.753,631.658H902.64a3,3,0,0,1,0-6h8.112a3,3,0,0,1,0,6Z" transform="translate(743.598 -862.059) rotate(90)"></path><path id="Path_27" data-name="Path 27" d="M910.753,631.658H902.64a3,3,0,0,1,0-6h8.112a3,3,0,0,1,0,6Z" transform="translate(743.598 -842.059) rotate(90)"></path><g id="Group_1" data-name="Group 1" transform="translate(-896 -458)"><path id="Rectangle_8" data-name="Rectangle 8" d="M5,5v8h7V5H5M0,0H17V18H0Z" transform="translate(946 597)"></path><path id="Rectangle_9" data-name="Rectangle 9" d="M5,5v8h7V5H5M0,0H17V18H0Z" transform="translate(920 597)"></path><path id="Rectangle_10" data-name="Rectangle 10" d="M5,5v8h7V5H5M0,0H17V18H0Z" transform="translate(946 572)"></path><path id="Rectangle_11" data-name="Rectangle 11" d="M5,5v8h7V5H5M0,0H17V18H0Z" transform="translate(920 572)"></path></g><path id="Path_20" data-name="Path 20" d="M925.1,628.652h-22.08a3,3,0,0,1,0-6H925.1a3,3,0,0,1,0,6Z" transform="translate(-762.534 -490)"></path><path id="Path_21" data-name="Path 21" d="M925.1,628.652h-22.08a3,3,0,0,1,0-6H925.1a3,3,0,0,1,0,6Z" transform="translate(-762.534 -508)"></path><path id="Path_22" data-name="Path 22" d="M925.1,628.652h-22.08a3,3,0,0,1,0-6H925.1a3,3,0,0,1,0,6Z" transform="translate(-762.534 -526)"></path><path id="Patssh_24" data-name="Path 24" d="M910.753,631.658H902.64a3,3,0,0,1,0-6h8.112a3,3,0,0,1,0,6Z" transform="translate(757.598 -862.059) rotate(90)"></path><path id="Path_26" data-name="Path 26" d="M910.753,631.658H902.64a3,3,0,0,1,0-6h8.112a3,3,0,0,1,0,6Z" transform="translate(757.598 -842.059) rotate(90)"></path><path id="Pathwwffgs_1" data-name="Path 1" d="M1063.582,628.652H898.752a3,3,0,0,1,0-6h164.829a3,3,0,0,1,0,6Z" transform="translate(-894.577 -458)"></path><path id="Patddddfsh_2" data-name="Path 2" d="M916.332,628.652H903.016a3,3,0,0,1,0-6h13.316a3,3,0,0,1,0,6Z" transform="translate(-753.771 -472)"></path><path id="Pataaasdfh_13" data-name="Path 13" d="M903.234,628.652a3.1,3.1,0,0,1-3.109-3,2.909,2.909,0,0,1,2.891-3h.219a3,3,0,0,1,0,6Z" transform="translate(-769.771 -472)"></path></g></svg> 
