<svg xmlns="http://www.w3.org/2000/svg" xmlns:xlink="http://www.w3.org/1999/xlink" width="161" height="151" viewBox="0 0 161 151"> <defs> <clipPath id="clip-Construction"> <rect width="161" height="151"/> </clipPath> </defs> <g id="Construction" clip-path="url(#clip-Construction)"> <path id="Path_1sdf" data-name="Path 1" d="M999.3,642.592h-30.3V517.57h30.3Zm-24.3-6h18.3V523.57h-18.3Z" transform="translate(-850.384 -516.331)"/> <path id="Path_2sdf" data-name="Path 2" d="M974.406,596.242a3,3,0,0,1-2.093-5.149l20.04-19.52-22.088-22.088a3,3,0,0,1,.026-4.268l22.1-21.576-22.165-22.957a3,3,0,0,1,.131-4.3l18.552-17.006H949.3a3,3,0,0,1,0-6h47.321a3,3,0,0,1,2.027,5.211l-21.968,20.137,22.1,22.888a3,3,0,0,1-.063,4.231L976.654,547.39l22.09,22.091a3,3,0,0,1-.028,4.27L976.5,595.391A2.991,2.991,0,0,1,974.406,596.242Z" transform="translate(-851 -472)"/> <path id="Pafdggth_3" data-name="Path 3" d="M971.809,490.636H888.132a3,3,0,0,1-3-3v-11.4a3,3,0,0,1,3-3h35.491a3,3,0,0,1,0,6H891.132v5.4h80.677a3,3,0,0,1,0,6Z" transform="translate(-851 -472)"/> <path id="Path_dfgdf4" data-name="Path 4" d="M888.518,490.636a3.171,3.171,0,0,1-3.193-3,2.841,2.841,0,0,1,2.807-3h.387a3,3,0,0,1,0,6Z" transform="translate(-802.335 -483.397)"/> <path id="Patsdfh_5" data-name="Path 5" d="M930.99,532.743H872.168a3,3,0,0,1-3-3V516.088a3,3,0,0,1,3-3h25.711V497.181a3,3,0,0,1,6,0v15.907H930.99a3,3,0,0,1,3,3v13.655A3,3,0,0,1,930.99,532.743Zm-55.821-6H927.99v-7.655H903.33a3.009,3.009,0,0,0-2.451,0H875.168Z" transform="translate(-851 -472)"/> <path id="Patgdfh_6" data-name="Path 6" d="M888.518,490.636a3.171,3.171,0,0,1-3.193-3,2.841,2.841,0,0,1,2.807-3h.387a3,3,0,0,1,0,6Z" transform="translate(-830.335 -378.397)"/> <path id="Path_dd7" data-name="Path 7" d="M1010.279,620.239h-51.8l-.03-2.97c-.141-13.924-.162-16.028.521-16.985a14.758,14.758,0,0,1,12.607-8.067h25.936a13.7,13.7,0,0,1,12.428,8.289c.576,1.041.545,3.5.375,16.771Zm-45.857-6h39.93c.053-5.12.073-10.062.026-11.492a7.581,7.581,0,0,0-6.835-4.53H971.6a8.783,8.783,0,0,0-7.2,4.649C964.35,604.769,964.391,610.625,964.422,614.239Z" transform="translate(-851 -472)"/> <path id="Padfgth_8" data-name="Path 8" d="M888.518,490.636H848.48a3,3,0,0,1,0-6h40.038a3,3,0,0,1,0,6Z" transform="translate(-843.335 -378.397)"/> <path id="Pdfgath_9" data-name="Path 9" d="M899.008,490.636H848.481a3,3,0,0,1,0-6h50.528a3,3,0,0,1,0,6Z" transform="translate(514.801 -754.26) rotate(90)"/> <path id="Pathsdf_10" data-name="Path 10" d="M899.008,490.636H848.481a3,3,0,0,1,0-6h50.528a3,3,0,0,1,0,6Z" transform="translate(560.801 -754.26) rotate(90)"/> <path id="Patsfsfsfdh_11" data-name="Path 11" d="M899.008,490.636H848.481a3,3,0,0,1,0-6h50.528a3,3,0,0,1,0,6Z" transform="translate(581.801 -754.26) rotate(90)"/> <path id="Patfgfh_12" data-name="Path 12" d="M899.008,490.636H848.481a3,3,0,0,1,0-6h50.528a3,3,0,0,1,0,6Z" transform="translate(492.801 -754.26) rotate(90)"/> <path id="Path_1sdf3" data-name="Path 13" d="M937.5,490.636H848.481a3,3,0,0,1,0-6H937.5a3,3,0,0,1,0,6Z" transform="translate(-843.335 -358.397)"/> <path id="Patbbh_14" data-name="Path 14" d="M937.5,490.636H848.481a3,3,0,0,1,0-6H937.5a3,3,0,0,1,0,6Z" transform="translate(-843.335 -342.397)"/> <path id="Path_15t" data-name="Path 15" d="M937.5,490.636H848.481a3,3,0,0,1-1.2-5.75l43.683-19.039a3,3,0,0,1,2.36-.016l45.336,19.039a3,3,0,0,1-1.162,5.766Zm-74.627-6h59.736L892.185,471.86Z" transform="translate(-843.335 -394.397)"/> </g> </svg>
